<?xml version="1.0" encoding="UTF-8"?>
<!DOCTYPE svg PUBLIC "-//W3C//DTD SVG 1.1//EN" "http://www.w3.org/Graphics/SVG/1.1/DTD/svg11.dtd">
<!-- Creator: CorelDRAW 2020 (64-Bit) -->
<svg xmlns="http://www.w3.org/2000/svg" xml:space="preserve" width="106.339mm" height="182.197mm" version="1.1" style="shape-rendering:geometricPrecision; text-rendering:geometricPrecision; image-rendering:optimizeQuality; fill-rule:evenodd; clip-rule:evenodd"
viewBox="0 0 312.67 535.72"
 xmlns:xlink="http://www.w3.org/1999/xlink"
 xmlns:xodm="http://www.corel.com/coreldraw/odm/2003">
 <defs>
  <style type="text/css">
   <![CDATA[
    .fil0 {fill:#301E15}
    .fil2 {fill:#65B24C}
    .fil1 {fill:#66B349}
    .fil3 {fill:#FAFAF8}
    .fil4 {fill:url(#id0)}
   ]]>
  </style>
  <linearGradient id="id0" gradientUnits="userSpaceOnUse" x1="62.18" y1="321.87" x2="258.06" y2="321.87">
   <stop offset="0" style="stop-opacity:1; stop-color:#622715"/>
   <stop offset="1" style="stop-opacity:1; stop-color:#D3322A"/>
  </linearGradient>
 </defs>
 <g id="Capa_x0020_1">
  <metadata id="CorelCorpID_0Corel-Layer"/>
  <g id="_1744831232736">
   <path class="fil0" d="M77.03 124.37c2.55,-5.77 4.42,-9.08 6.18,-15.85 0.92,-3.53 1.3,-6.3 1.57,-9.88 0.44,-5.97 0.64,-6.8 -1.14,-9.66 -3.45,1 -2.59,-0.04 -3.11,5.41 -1.27,13.32 -6.69,28.88 -16.6,35.82 -2.94,-2.68 -5.39,-7.37 -7.34,-10.76 -3.31,-5.75 -8.35,-24.56 -11.33,-25.97 -4.26,5.44 4.37,26.49 6.74,31.61 4.01,8.65 10.34,18.62 16.11,23.97 -4.86,5.45 -20.41,1.89 -27.73,-0.94 -5.61,-2.17 -16.04,-9.55 -18.54,-9.62 -1.53,6.05 11,12.85 15.94,15.31 7.97,3.96 16.4,6.23 26.15,6.29 15.84,0.1 9.16,-4.49 18.84,3.7 10.05,8.5 20.78,13.47 23.54,15.73 -2.47,1.31 -13.23,3.92 -17.85,5.87 -5.85,2.47 -10.36,5.29 -16.82,7 -18.29,4.84 -33.31,-5.07 -39.28,-3.59 1.96,5.22 9.88,7.38 15.37,9.04 27.57,8.34 52.94,-13.19 72.3,-7.08 5.78,1.83 15.77,12.13 18.83,18.6 2.41,5.09 3.57,9.37 3.84,15.47 5.88,1.53 32.5,1.7 37.53,-0.87 3.91,-3.38 4.94,-5.26 11.09,-7.27 5.09,-1.67 11.73,-1.23 16.98,-1.38 23.24,-0.67 44.53,-5.44 59.92,-23.16 10.41,-11.99 11.13,-20.6 -3.82,-5.55 -17.53,17.65 -64.28,11.58 -83.07,12.39 0.67,-1.12 6.67,-6.68 8.69,-8.53 4.63,-4.23 4.55,-5.01 7.81,-8.8 5.58,-6.48 9.42,-12.17 13.81,-20.4 19.58,-0.64 39.97,-10.96 43.45,-28.4 -4.63,-0.76 -5.21,2.51 -8.3,5.48 -2.34,2.26 -4.85,4.23 -8.08,6.38 -5.68,4.01 -13.1,6.59 -22.09,7.05 2.59,-8.89 6.05,-15.36 8.06,-26.17 1.07,-5.74 5.47,-25.31 1.07,-29.32 -2.9,1.71 -2.1,1.15 -2.83,5.84 -2.86,18.39 -5.3,25.82 -13.89,43.04 -9.12,18.3 -29.8,38.74 -48.63,47.92 -4.46,-1.5 -9.88,-7.65 -13.09,-10.84 -12.66,-12.57 -18.14,-30.29 -19.24,-49.68 6.06,-0.85 11.77,-2.59 16.92,-4.78 10.77,-4.57 21.29,-13.38 27.56,-23.21 2.39,-3.74 9.59,-14.88 7.56,-19.41 -4.82,0.59 -4.78,6.59 -8.02,10.64 -7.1,13.16 -23.75,26.32 -44.27,28.33 0.23,-11.61 1.66,-20.77 3.29,-28.05 2.36,-10.54 5.14,-17.16 5.25,-21.64 -4.9,1.3 -3.89,1.44 -5.96,6.31 -5.3,12.48 -8.52,23.42 -11.07,38.9 -4.65,28.27 2.72,38.29 3.63,51.3 -20.12,-5.16 -47.78,-23.58 -54.62,-35 2.77,-2.55 6.28,-7.99 8.68,-11.59z"/>
   <path class="fil0" d="M105.51 519.83l2.28 -0.06c3.04,-6.49 2.61,-12.2 7.24,-19.05 3.52,-5.21 8.97,-8.47 15.16,-10.78 -5,17.2 -0.34,12.93 0.75,29.31 0.33,4.98 -0.27,7.35 3.52,9.64 8.69,-5.71 -6.57,-23.89 2,-36.81 3.22,-4.85 7.51,-6.77 11.55,-12.32 4.08,-5.61 4.99,-10.26 5.2,-18.79 3.4,2.66 6.37,3.91 7.51,9.06 1.23,5.58 0.31,9.03 -1.87,13.33 -5.02,9.91 -16.72,15.55 -13.07,19.2 2.55,2.56 18.22,-10.15 21.94,-24.8l1.24 -3.96c0.09,-0.21 0.3,-0.56 0.38,-0.73 0.08,-0.17 0.24,-0.5 0.4,-0.72 12.17,8.49 -1.98,25.46 -5.63,30.78 -5.12,7.44 -7.61,17.85 -5.6,27.3 1,4.7 0.98,4.21 5.15,5.3 2.38,-15.99 -4.4,-16.87 6.17,-30 16.87,-20.94 6.54,-12.17 12.35,-22.75 5.02,4.92 7.87,13.76 7.17,22.64 -0.41,5.23 -8.76,26.29 -0.37,16.32 3.91,-8.85 7.23,-14.65 5.49,-26.53 -2.87,-19.55 -16.28,-26.08 -29.25,-35.05 -5.54,-3.83 -11.08,-11.88 -8.85,-22.16 4.66,0.07 8.86,4.13 12.14,6.43 6.22,4.37 16.15,5.96 26.07,11.26 8.08,4.32 13.66,20.18 13.45,24.53 -0.32,6.76 -1.18,9.94 0.16,16.85 1.5,7.74 9.24,22.91 14.32,22.11l0.25 -3.42c-0.02,-0.04 -2.03,-2.68 -2.27,-2.98 -5.98,-7.4 -7.76,-16.49 -7.35,-26.24 2.17,1.17 14.07,11.18 24,8.67 -0.36,-6.48 -1.4,-4.53 -7.85,-6.78 -11.47,-4 -12.88,-8.92 -18.02,-25.66 10.29,2.52 9.97,8.38 17.71,12.44 3.94,2.07 19.32,7.43 23.55,5.33 -0.58,-2.62 0.05,-2.26 -6.22,-3.98 -2.93,-0.81 -4.87,-1.49 -7.59,-2.75 -4.99,-2.32 -10.18,-5.6 -12.03,-9.67 6.41,0.14 9.56,-1.47 16.08,0.45 6.46,1.9 20.1,4.52 22.98,-4.37 -10.98,-1.07 -1.42,6.25 -21.96,-0.87 -7.09,-2.46 -17.84,-0.63 -27.05,-2.92 -5.42,-1.35 -37.97,-17.58 -38.25,-20.49 3.06,-9.93 23.23,-4.62 30.31,-0.7 8.09,4.47 5.87,5.29 10.74,10.03 2.59,2.53 9.91,7.53 14.69,4.16 -0.86,-7.73 -4.18,-0.33 -13.98,-12.13 -2.94,-3.54 -3.01,-3.25 -7.21,-6.28 -3.77,-2.72 -5.73,-2.54 -8.66,-4.41 3.47,-2.65 11.19,-2.56 16.13,-1.93 12.47,1.59 20.8,26.8 33.16,22.74 -1.39,-5.89 -1.17,-1.33 -9.26,-8.37 -3.48,-3.03 -6.56,-6.02 -7.18,-11.22 7.7,2.9 26.07,18.96 36.01,13.15 -1.17,-6.53 -6.44,-1.78 -20.51,-11.26 -6.22,-4.19 -13.28,-8.95 -23.18,-9.41l-3.99 -0.77 -127.58 -0.37c-10.78,-0.74 -24.32,0.02 -33.51,3.84 -5.19,2.16 -7.05,4.88 -10.05,8.61 -4,4.97 -8.29,4.11 -9.15,9.69 8.59,3.3 12.46,-8.06 17.79,-11.4 7.18,-4.49 18.86,-3.8 27.99,-4.24 -0.52,1.09 -6.2,8.39 -8.87,9.88 -6.49,3.61 -10.19,1.11 -11.79,6.61 3.86,2.84 11.07,0.05 14.4,-1.95 6.05,-3.65 3.72,-7.17 10.71,-9 7.52,-1.97 28.69,-5.97 35.03,-2.73 0.55,2.71 -3.39,5.72 -6.52,7.36 -3.65,1.92 -7.14,2.72 -11.55,4.06 -28.83,8.72 -23.79,19.58 -32.48,29.75 -10.12,11.84 -17.47,7.3 -20.42,11.93 2.6,3.14 4.88,2.06 9.26,0.78 3.35,-0.98 5.84,-2.03 8.64,-3.83 13.29,-8.54 10.49,-20.18 22.93,-26.87 5.48,-2.95 12.33,-5.1 18.81,-6.28 -2.12,10.29 -9.44,20.24 -15.36,24.28 -4.98,3.4 -8.37,3.33 -12.26,7.42 -1.9,2 -7.7,9.2 -4.83,13.36 6.71,-1.63 -0.6,-6.99 16.38,-14.27 9.27,-3.97 12.09,-10.98 16.66,-15.06 1.7,10.75 -6.15,12.78 -4.22,18.61 8.92,4 11.06,-15.37 10.4,-23.05 -0.95,-10.95 6.38,-20.2 15.42,-20.3 2.85,5.17 4.25,20.32 3.68,27.61 -1.12,14.38 -24.19,22.59 -31.93,31.54 -3.94,4.56 -9.79,15.82 -7.61,24.09z"/>
   <path class="fil1" d="M203.96 133.04c8.77,-3.04 7.56,-23.92 3.54,-30.68 -2.4,-4.03 0.01,-1.67 -3.54,-3.2 -8.67,4.73 -8.35,28.53 0,33.88z"/>
   <path class="fil1" d="M223.66 8.34c-8.29,-0.66 -32.88,5.02 -30.94,13.89 1.61,7.38 33.01,-0.39 30.94,-13.89z"/>
   <path class="fil1" d="M196.7 97.24c9.65,-3.09 9.84,-29.45 2.07,-34.06 -9.48,2.98 -9.45,28.32 -2.07,34.06z"/>
   <path class="fil1" d="M261.38 79.93c9.57,-0.05 24.25,-22.36 16.05,-29.94 -4.31,-3.99 -18.99,12.65 -16.05,29.94z"/>
   <path class="fil1" d="M80.56 16.67c-8.35,-3.6 -19.91,22.36 -13.52,30.95 11.19,-2.29 18.19,-21.41 13.52,-30.95z"/>
   <path class="fil1" d="M0.11 141.14c2.25,12.99 25.1,27.98 24.84,18.09 -0.34,-13.04 -26.9,-29.99 -24.84,-18.09z"/>
   <path class="fil1" d="M239.23 190.55c9.24,-2.96 10.6,-27.99 3.11,-33.95 -9.81,1.94 -10.61,27.24 -3.11,33.95z"/>
   <path class="fil1" d="M240.35 68.79c11.43,3.65 21.77,-24.07 17.84,-28.84 -5.17,-6.28 -18.65,16.81 -17.84,28.84z"/>
   <path class="fil1" d="M193.24 57.51c10.1,2.62 23.66,-24.19 17.59,-28.51 -6.24,-4.44 -21.56,19.34 -17.59,28.51z"/>
   <path class="fil1" d="M161.62 83.51l0.22 0.52c11.64,-0.13 24.52,-14.21 23.58,-25.94 -12.12,-0.75 -23.57,13.46 -23.8,25.42z"/>
   <path class="fil1" d="M208.9 69.01c2.66,5.82 24.72,-10.53 23.03,-25.33 -10.71,-0.65 -26.67,17.37 -23.03,25.33z"/>
   <path class="fil1" d="M119.46 85.92c-9.1,-1.25 -21.43,19.1 -17.5,28.83 13.82,-1.89 24.05,-27.93 17.5,-28.83z"/>
   <path class="fil1" d="M48.55 65.34c7.8,1.65 12.46,-23.42 7.32,-33.13 -12.29,1.57 -13.38,31.85 -7.32,33.13z"/>
   <path class="fil1" d="M161.14 92.62c-7.68,-1.51 -14.15,2.17 -18.8,5.59 -1.81,1.33 -11.79,10.97 -8.91,13.91 5.41,5.52 29.2,-8.36 27.71,-19.5z"/>
   <path class="fil1" d="M277.15 175.33c11.4,2.43 25.99,-16.97 23.62,-25.15 -10.98,-5.04 -21.84,16.2 -23.62,25.15z"/>
   <path class="fil1" d="M107.49 156.96c11.19,-7.31 2.37,-31.54 -1.04,-33.63 -9.97,7.59 -6.99,30.07 1.04,33.63z"/>
   <path class="fil1" d="M234.06 108.99c9.26,3.65 23.97,-19.85 19.95,-27.36 -8.79,-1.58 -24.35,19.08 -19.95,27.36z"/>
   <path class="fil1" d="M108.53 40.58c7.87,-4.09 8.39,-32.33 1.62,-33.48 -8.55,-1.45 -10.97,29.52 -1.62,33.48z"/>
   <path class="fil1" d="M219.65 37.47c7.73,4.58 32.24,-5.62 29.59,-15.49 -7.78,-0.82 -36.38,5.44 -29.59,15.49z"/>
   <path class="fil1" d="M186.33 160.43c10.53,-2.43 9.38,-24.91 4.47,-33.82 -10.47,1.61 -11.9,24.91 -4.47,33.82z"/>
   <path class="fil1" d="M29.83 185.9c2.27,-9.32 -15.97,-22.75 -28.47,-20.51 2.28,13.34 15.94,20.43 28.47,20.51z"/>
   <path class="fil1" d="M283.71 116.4c6.94,-0.29 26.95,-13.63 21.65,-20.7 -7.42,-7.25 -39.34,21.43 -21.65,20.7z"/>
   <path class="fil1" d="M226.9 169.01c-18.1,-1.13 -36.43,35.08 -14.76,22.84 3.04,-1.72 4.72,-3.31 6.92,-5.54 3.63,-3.68 8.3,-10.36 7.84,-17.3z"/>
   <path class="fil1" d="M133.79 137.36c-2.42,14.59 13.08,32.87 17.42,28.8 5.8,-5.44 -7.1,-31.71 -17.42,-28.8z"/>
   <path class="fil1" d="M270.7 136.2c4.92,-13.08 2.81,-24.08 -5.54,-33.29 -10.19,1.11 -5.66,32.73 5.54,33.29z"/>
   <path class="fil1" d="M174.92 128.66c5.38,0.3 9.87,-6.12 11.89,-10.91 2.43,-5.75 3.25,-14.31 1.78,-20.34 -9.57,0.33 -19.26,21.14 -13.67,31.24z"/>
   <path class="fil1" d="M66.61 178.9c5.19,2.56 13.04,4.28 19.05,2.7 0.66,-12.15 -27.4,-20.98 -30.36,-15.08 -1.91,3.81 7.71,10.61 11.31,12.38z"/>
   <path class="fil1" d="M63.22 116.8c9.44,-0.95 13.9,-25.29 7.75,-33.35 -9.93,1.47 -14.04,25.51 -7.75,33.35z"/>
   <path class="fil1" d="M188.02 29.49c1,-18.09 -13.45,-29.92 -18.6,-28.77 -3.6,10.68 7.91,30.15 18.6,28.77z"/>
   <path class="fil1" d="M235.05 67.53c-9.2,0.44 -32.06,25.48 -19.57,26.74 8.49,0.86 22.93,-17.8 19.57,-26.74z"/>
   <path class="fil1" d="M275.54 151.5c10.09,0 21.55,-16.81 18.5,-29.36 -13.07,0.4 -18.81,18.3 -18.5,29.36z"/>
   <path class="fil1" d="M4.14 103.31c-7.64,2.55 7.83,31.54 13.98,30.08 8.59,-2.04 -4.48,-33.25 -13.98,-30.08z"/>
   <path class="fil1" d="M305.28 87.89c3.26,-10.57 -11,-27.95 -21.13,-27.31 -1.1,10.27 8.64,28.1 21.13,27.31z"/>
   <path class="fil1" d="M53.39 89.86c6.33,2.68 21.68,-25.8 14.28,-29.94 -9.36,-5.24 -19.99,27.52 -14.28,29.94z"/>
   <path class="fil1" d="M186.77 33.88c-11.71,-1.3 -29.98,18.08 -24.44,23.22 5.02,4.66 28.17,-13.24 24.44,-23.22z"/>
   <path class="fil1" d="M147.09 87.13c8.26,-2.43 13.21,-25.37 7.07,-32.83 -12.46,1.75 -13.39,34.68 -7.07,32.83z"/>
   <path class="fil1" d="M12.79 86.9c-4.57,10.64 23.56,24.43 26.68,20.44 4.07,-5.21 -16.72,-24.18 -26.68,-20.44z"/>
   <path class="fil1" d="M45.17 88.24c-0.19,-9.79 -9.58,-31.62 -20.47,-27.28 0.55,9.61 10.9,33.25 20.47,27.28z"/>
   <path class="fil1" d="M116.76 77.8c6.97,8.08 26.27,-24.1 18.79,-27.52 -6.34,-2.9 -22.54,19.28 -18.79,27.52z"/>
   <path class="fil1" d="M306.65 143.49c8.37,-4.58 7.68,-28.57 0,-33.89 -9.34,3.27 -8.32,30.57 0,33.89z"/>
   <path class="fil1" d="M161.11 123.93c-7.34,-0.06 -5.39,30.22 4.47,33.23 8.28,-6.46 2.96,-33.17 -4.47,-33.23z"/>
   <path class="fil1" d="M85.71 143.42c9.8,-6.18 13.04,-25.36 7.51,-32.74 -8.91,-1.69 -16.97,28.48 -7.51,32.74z"/>
   <path class="fil1" d="M105.75 59.53c1.17,-8.15 -5.4,-28.49 -19.09,-28.44 -2.84,6.06 5.3,29.93 19.09,28.44z"/>
   <path class="fil1" d="M251.56 113.97c-6.29,-5.88 -27.72,20.1 -21.83,25.09 6.94,5.88 26.91,-20.34 21.83,-25.09z"/>
   <path class="fil1" d="M147.11 47.08c12,4.36 25.2,-25.06 19.21,-27.66 -8.81,-3.82 -18.77,20.13 -19.21,27.66z"/>
   <path class="fil2" d="M81.56 82.78c8.51,-3.15 8.67,-29.73 0,-34.08 -8.24,4.02 -7.69,30.01 0,34.08z"/>
   <path class="fil1" d="M114.06 50.47c10.18,-1.26 27.6,-12.92 24.55,-25.4 -12.76,1.09 -25.19,13.82 -24.55,25.4z"/>
   <path class="fil1" d="M258.48 92.39c5.22,8.58 28.79,5.98 33.65,-1.04 -3.04,-9.19 -30.65,-8.11 -33.65,1.04z"/>
   <path class="fil1" d="M123.69 20.57c2.58,5.76 29.05,-5.49 27.16,-20.27 -7.39,-2.38 -31.87,9.76 -27.16,20.27z"/>
   <path class="fil1" d="M181.98 162.72c-11.39,0.87 -17.61,3.89 -24.81,13.59 -13.23,17.81 26.84,3.37 24.81,-13.59z"/>
   <path class="fil1" d="M57.24 187.41c0.92,-10.46 -14.08,-25.27 -24.24,-24.36 -1.74,11.14 14.75,27.71 24.24,24.36z"/>
   <path class="fil1" d="M257.59 140.54c-6.24,9.06 0.48,33.26 10.39,32.45 3.98,-9.78 -0.3,-29.5 -10.39,-32.45z"/>
   <path class="fil1" d="M51.03 145.06c5.45,-3 -6.9,-27.7 -20.11,-26.5 -2.54,12.63 14.84,29.4 20.11,26.5z"/>
   <path class="fil1" d="M92.15 94.13c3.94,3.95 22.48,-14.12 16.19,-28.25 -10.92,0.02 -20.37,24.06 -16.19,28.25z"/>
   <path class="fil3" d="M252.89 192.64c5.32,-0.29 14.56,-9.27 16.11,-12.7l-3.93 -3.27c-1.44,-1.04 -12.35,-5.97 -16.18,-5.3 -1.78,4.08 -0.89,1.37 -1.18,6.37 -0.9,15.87 3.83,8.53 0.46,15.19l4.71 -0.3z"/>
   <path class="fil4" d="M62.18 239.7c0,-2.91 0,-5.8 0,-8.59 0,-4 3.24,-7.24 7.24,-7.24 2.5,0 5.02,0.06 7.52,0.06l147.74 0c1.15,0 2.3,-0.01 3.43,0.06 3.77,0.25 6.76,3.39 6.76,7.22 0,4.16 -4.03,6.95 -6.82,9.74l-27.23 27.23 0 -9.72c0,-3.8 -2.89,-6.91 -6.43,-6.91l-79.38 0c-3.54,0 -6.43,3.11 -6.43,6.91l0 15.98 62.21 0 -33.08 56.86 -59.34 59.34c-2.55,2.55 -4.98,5.99 -8.94,5.99 -3.42,0 -6.28,-2.37 -7.04,-5.56 -0.13,-0.54 -0.2,-1.1 -0.2,-1.68 0,-49.89 0,-99.78 0,-149.68zm195.88 164.34c0,2.91 0,5.8 0,8.59 0,4 -3.24,7.24 -7.24,7.24 -2.5,0 -5.02,-0.06 -7.52,-0.06l-147.74 0c-1.15,0 -2.3,0.01 -3.43,-0.06 -3.77,-0.25 -6.76,-3.39 -6.76,-7.22 0,-4.16 4.03,-6.95 6.82,-9.74l22.46 -22.46 0 4.95c0,3.8 2.89,6.91 6.43,6.91l84.15 0c3.54,0 6.43,-3.11 6.43,-6.91l0 -15.98 -66.59 0 26.98 -46.37 69.83 -69.83c2.55,-2.55 4.98,-5.99 8.94,-5.99 3.42,0 6.28,2.37 7.04,5.56 0.13,0.54 0.2,1.1 0.2,1.68 0,49.89 0,99.78 0,149.68z"/>
  </g>
 </g>
</svg>
