<svg width="177" height="47" viewBox="0 0 177 47" fill="none" xmlns="http://www.w3.org/2000/svg">
<path d="M25.344 24.64V27.44H29.104V29.216H25.344V32.176H29.584V34H23.104V22.816H29.584V24.64H25.344ZM39.2196 22.832V24.64H36.2436V34H34.0036V24.64H31.0276V22.832H39.2196ZM47.702 31.872H43.254L42.518 34H40.166L44.182 22.816H46.79L50.806 34H48.438L47.702 31.872ZM47.094 30.08L45.478 25.408L43.862 30.08H47.094ZM173.143 34.112C172.738 34.112 172.402 33.9893 172.135 33.744C171.879 33.488 171.751 33.1733 171.751 32.8C171.751 32.4267 171.879 32.1173 172.135 31.872C172.402 31.616 172.738 31.488 173.143 31.488C173.538 31.488 173.863 31.616 174.119 31.872C174.375 32.1173 174.503 32.4267 174.503 32.8C174.503 33.1733 174.375 33.488 174.119 33.744C173.863 33.9893 173.538 34.112 173.143 34.112Z" fill="#C83128"/>
<path d="M62.4556 28.272C63.085 28.3893 63.6023 28.704 64.0076 29.216C64.413 29.728 64.6156 30.3147 64.6156 30.976C64.6156 31.5733 64.4663 32.1013 64.1676 32.56C63.8796 33.008 63.4583 33.36 62.9036 33.616C62.349 33.872 61.693 34 60.9356 34H56.1196V22.832H60.7276C61.485 22.832 62.1356 22.9547 62.6796 23.2C63.2343 23.4453 63.6503 23.7867 63.9276 24.224C64.2156 24.6613 64.3596 25.1573 64.3596 25.712C64.3596 26.3627 64.1836 26.9067 63.8316 27.344C63.4903 27.7813 63.0316 28.0907 62.4556 28.272ZM58.3596 27.44H60.4076C60.941 27.44 61.3516 27.3227 61.6396 27.088C61.9276 26.8427 62.0716 26.496 62.0716 26.048C62.0716 25.6 61.9276 25.2533 61.6396 25.008C61.3516 24.7627 60.941 24.64 60.4076 24.64H58.3596V27.44ZM60.6156 32.176C61.1596 32.176 61.581 32.048 61.8796 31.792C62.189 31.536 62.3436 31.1733 62.3436 30.704C62.3436 30.224 62.1836 29.8507 61.8636 29.584C61.5436 29.3067 61.1116 29.168 60.5676 29.168H58.3596V32.176H60.6156ZM67.5369 24.08C67.1422 24.08 66.8115 23.9573 66.5449 23.712C66.2889 23.456 66.1609 23.1413 66.1609 22.768C66.1609 22.3947 66.2889 22.0853 66.5449 21.84C66.8115 21.584 67.1422 21.456 67.5369 21.456C67.9315 21.456 68.2569 21.584 68.5129 21.84C68.7795 22.0853 68.9129 22.3947 68.9129 22.768C68.9129 23.1413 68.7795 23.456 68.5129 23.712C68.2569 23.9573 67.9315 24.08 67.5369 24.08ZM68.6409 25.136V34H66.4009V25.136H68.6409ZM74.79 34.144C73.9367 34.144 73.1687 33.9573 72.486 33.584C71.8033 33.2 71.2647 32.6613 70.87 31.968C70.486 31.2747 70.294 30.4747 70.294 29.568C70.294 28.6613 70.4913 27.8613 70.886 27.168C71.2913 26.4747 71.8407 25.9413 72.534 25.568C73.2273 25.184 74.0007 24.992 74.854 24.992C75.7073 24.992 76.4807 25.184 77.174 25.568C77.8673 25.9413 78.4113 26.4747 78.806 27.168C79.2113 27.8613 79.414 28.6613 79.414 29.568C79.414 30.4747 79.206 31.2747 78.79 31.968C78.3847 32.6613 77.83 33.2 77.126 33.584C76.4327 33.9573 75.654 34.144 74.79 34.144ZM74.79 32.192C75.1953 32.192 75.574 32.096 75.926 31.904C76.2887 31.7013 76.5767 31.4027 76.79 31.008C77.0033 30.6133 77.11 30.1333 77.11 29.568C77.11 28.7253 76.886 28.08 76.438 27.632C76.0007 27.1733 75.462 26.944 74.822 26.944C74.182 26.944 73.6433 27.1733 73.206 27.632C72.7793 28.08 72.566 28.7253 72.566 29.568C72.566 30.4107 72.774 31.0613 73.19 31.52C73.6167 31.968 74.15 32.192 74.79 32.192ZM82.1931 24.08C81.7985 24.08 81.4678 23.9573 81.2011 23.712C80.9451 23.456 80.8171 23.1413 80.8171 22.768C80.8171 22.3947 80.9451 22.0853 81.2011 21.84C81.4678 21.584 81.7985 21.456 82.1931 21.456C82.5878 21.456 82.9131 21.584 83.1691 21.84C83.4358 22.0853 83.5691 22.3947 83.5691 22.768C83.5691 23.1413 83.4358 23.456 83.1691 23.712C82.9131 23.9573 82.5878 24.08 82.1931 24.08ZM83.2971 25.136V34H81.0571V25.136H83.2971ZM90.4223 25.008C91.4783 25.008 92.3316 25.344 92.9823 26.016C93.6329 26.6773 93.9583 27.6053 93.9583 28.8V34H91.7183V29.104C91.7183 28.4 91.5423 27.8613 91.1903 27.488C90.8383 27.104 90.3583 26.912 89.7503 26.912C89.1316 26.912 88.6409 27.104 88.2783 27.488C87.9263 27.8613 87.7503 28.4 87.7503 29.104V34H85.5103V25.136H87.7503V26.24C88.0489 25.856 88.4276 25.5573 88.8863 25.344C89.3556 25.12 89.8676 25.008 90.4223 25.008ZM101 25.008C102.056 25.008 102.91 25.344 103.56 26.016C104.211 26.6773 104.536 27.6053 104.536 28.8V34H102.296V29.104C102.296 28.4 102.12 27.8613 101.768 27.488C101.416 27.104 100.936 26.912 100.328 26.912C99.7097 26.912 99.219 27.104 98.8564 27.488C98.5044 27.8613 98.3284 28.4 98.3284 29.104V34H96.0884V25.136H98.3284V26.24C98.627 25.856 99.0057 25.5573 99.4644 25.344C99.9337 25.12 100.446 25.008 101 25.008ZM110.603 34.144C109.749 34.144 108.981 33.9573 108.299 33.584C107.616 33.2 107.077 32.6613 106.683 31.968C106.299 31.2747 106.107 30.4747 106.107 29.568C106.107 28.6613 106.304 27.8613 106.699 27.168C107.104 26.4747 107.653 25.9413 108.347 25.568C109.04 25.184 109.813 24.992 110.667 24.992C111.52 24.992 112.293 25.184 112.987 25.568C113.68 25.9413 114.224 26.4747 114.619 27.168C115.024 27.8613 115.227 28.6613 115.227 29.568C115.227 30.4747 115.019 31.2747 114.602 31.968C114.197 32.6613 113.643 33.2 112.939 33.584C112.245 33.9573 111.467 34.144 110.603 34.144ZM110.603 32.192C111.008 32.192 111.387 32.096 111.739 31.904C112.101 31.7013 112.389 31.4027 112.603 31.008C112.816 30.6133 112.923 30.1333 112.923 29.568C112.923 28.7253 112.699 28.08 112.251 27.632C111.813 27.1733 111.275 26.944 110.635 26.944C109.995 26.944 109.456 27.1733 109.019 27.632C108.592 28.08 108.379 28.7253 108.379 29.568C108.379 30.4107 108.587 31.0613 109.003 31.52C109.429 31.968 109.963 32.192 110.603 32.192ZM120.566 31.936L122.806 25.136H125.19L121.91 34H119.19L115.926 25.136H118.326L120.566 31.936ZM125.872 29.536C125.872 28.64 126.048 27.8453 126.4 27.152C126.762 26.4587 127.248 25.9253 127.856 25.552C128.474 25.1787 129.162 24.992 129.92 24.992C130.581 24.992 131.157 25.1253 131.648 25.392C132.149 25.6587 132.549 25.9947 132.848 26.4V25.136H135.104V34H132.848V32.704C132.56 33.12 132.16 33.4667 131.648 33.744C131.146 34.0107 130.565 34.144 129.904 34.144C129.157 34.144 128.474 33.952 127.856 33.568C127.248 33.184 126.762 32.6453 126.4 31.952C126.048 31.248 125.872 30.4427 125.872 29.536ZM132.848 29.568C132.848 29.024 132.741 28.56 132.528 28.176C132.314 27.7813 132.026 27.4827 131.664 27.28C131.301 27.0667 130.912 26.96 130.496 26.96C130.08 26.96 129.696 27.0613 129.344 27.264C128.992 27.4667 128.704 27.7653 128.48 28.16C128.266 28.544 128.16 29.0027 128.16 29.536C128.16 30.0693 128.266 30.5387 128.48 30.944C128.704 31.3387 128.992 31.6427 129.344 31.856C129.706 32.0693 130.09 32.176 130.496 32.176C130.912 32.176 131.301 32.0747 131.664 31.872C132.026 31.6587 132.314 31.36 132.528 30.976C132.741 30.5813 132.848 30.112 132.848 29.568ZM136.715 29.568C136.715 28.6507 136.902 27.8507 137.276 27.168C137.649 26.4747 138.166 25.9413 138.828 25.568C139.489 25.184 140.246 24.992 141.1 24.992C142.198 24.992 143.105 25.2693 143.82 25.824C144.545 26.368 145.03 27.136 145.276 28.128H142.86C142.732 27.744 142.513 27.4453 142.204 27.232C141.905 27.008 141.532 26.896 141.084 26.896C140.444 26.896 139.937 27.1307 139.564 27.6C139.19 28.0587 139.004 28.7147 139.004 29.568C139.004 30.4107 139.19 31.0667 139.564 31.536C139.937 31.9947 140.444 32.224 141.084 32.224C141.99 32.224 142.582 31.8187 142.86 31.008H145.276C145.03 31.968 144.545 32.7307 143.82 33.296C143.094 33.8613 142.188 34.144 141.1 34.144C140.246 34.144 139.489 33.9573 138.828 33.584C138.166 33.2 137.649 32.6667 137.276 31.984C136.902 31.2907 136.715 30.4853 136.715 29.568ZM148.053 24.08C147.658 24.08 147.327 23.9573 147.061 23.712C146.805 23.456 146.677 23.1413 146.677 22.768C146.677 22.3947 146.805 22.0853 147.061 21.84C147.327 21.584 147.658 21.456 148.053 21.456C148.447 21.456 148.773 21.584 149.029 21.84C149.295 22.0853 149.429 22.3947 149.429 22.768C149.429 23.1413 149.295 23.456 149.029 23.712C148.773 23.9573 148.447 24.08 148.053 24.08ZM149.157 25.136V34H146.917V25.136H149.157ZM155.306 34.144C154.452 34.144 153.684 33.9573 153.002 33.584C152.319 33.2 151.78 32.6613 151.386 31.968C151.002 31.2747 150.81 30.4747 150.81 29.568C150.81 28.6613 151.007 27.8613 151.402 27.168C151.807 26.4747 152.356 25.9413 153.05 25.568C153.743 25.184 154.516 24.992 155.37 24.992C156.223 24.992 156.996 25.184 157.69 25.568C158.383 25.9413 158.927 26.4747 159.322 27.168C159.727 27.8613 159.93 28.6613 159.93 29.568C159.93 30.4747 159.722 31.2747 159.306 31.968C158.9 32.6613 158.346 33.2 157.642 33.584C156.948 33.9573 156.17 34.144 155.306 34.144ZM155.306 32.192C155.711 32.192 156.09 32.096 156.442 31.904C156.804 31.7013 157.092 31.4027 157.306 31.008C157.519 30.6133 157.626 30.1333 157.626 29.568C157.626 28.7253 157.402 28.08 156.954 27.632C156.516 27.1733 155.978 26.944 155.338 26.944C154.698 26.944 154.159 27.1733 153.722 27.632C153.295 28.08 153.082 28.7253 153.082 29.568C153.082 30.4107 153.29 31.0613 153.706 31.52C154.132 31.968 154.666 32.192 155.306 32.192ZM157.21 22.72L153.53 24.4V22.8L157.21 20.896V22.72ZM166.485 25.008C167.541 25.008 168.394 25.344 169.045 26.016C169.695 26.6773 170.021 27.6053 170.021 28.8V34H167.781V29.104C167.781 28.4 167.605 27.8613 167.253 27.488C166.901 27.104 166.421 26.912 165.813 26.912C165.194 26.912 164.703 27.104 164.341 27.488C163.989 27.8613 163.813 28.4 163.813 29.104V34H161.573V25.136H163.813V26.24C164.111 25.856 164.49 25.5573 164.949 25.344C165.418 25.12 165.93 25.008 166.485 25.008Z" fill="#66B349"/>
<path fill-rule="evenodd" clip-rule="evenodd" d="M6.65225 10.7628C6.87246 10.2635 7.03394 9.97702 7.18592 9.39117C7.26537 9.0857 7.29818 8.846 7.32149 8.5362C7.35949 8.01958 7.37676 7.94775 7.22305 7.70026C6.92513 7.78679 6.9994 7.6968 6.95449 8.16842C6.84482 9.32108 6.37679 10.6676 5.52102 11.2681C5.26714 11.0362 5.05557 10.6304 4.88718 10.337C4.60135 9.83943 4.16613 8.21169 3.9088 8.08967C3.54093 8.56043 4.28616 10.382 4.49082 10.8251C4.8371 11.5736 5.38372 12.4364 5.88198 12.8994C5.4623 13.371 4.1195 13.0629 3.48739 12.818C3.00295 12.6302 2.10228 11.9916 1.88639 11.9855C1.75427 12.5091 2.83629 13.0975 3.26287 13.3104C3.95111 13.6531 4.67907 13.8495 5.52102 13.8547C6.88886 13.8634 6.31202 13.4662 7.14792 14.1749C8.01578 14.9105 8.94235 15.3405 9.18069 15.5361C8.9674 15.6495 8.03823 15.8753 7.63928 16.0441C7.13411 16.2578 6.74465 16.5019 6.18681 16.6498C4.6074 17.0687 3.31037 16.2111 2.79484 16.3392C2.96409 16.7909 3.64801 16.9778 4.12209 17.1215C6.50286 17.8432 8.69365 15.98 10.3655 16.5088C10.8646 16.6671 11.7273 17.5585 11.9915 18.1183C12.1996 18.5588 12.2998 18.9292 12.3231 19.4571C12.8309 19.5895 15.1296 19.6042 15.564 19.3818C15.9016 19.0893 15.9905 18.9266 16.5216 18.7527C16.9612 18.6081 17.5345 18.6462 17.9879 18.6332C19.9948 18.5753 21.8332 18.1625 23.1622 16.6291C24.0612 15.5915 24.1233 14.8464 22.8323 16.1488C21.3186 17.6761 17.2815 17.1509 15.6589 17.221C15.7168 17.124 16.2349 16.6429 16.4094 16.4828C16.8092 16.1168 16.8023 16.0493 17.0838 15.7213C17.5656 15.1605 17.8972 14.6682 18.2763 13.956C19.9671 13.9006 21.7279 13.0075 22.0284 11.4983C21.6286 11.4326 21.5785 11.7155 21.3117 11.9725C21.1096 12.1681 20.8928 12.3386 20.6139 12.5246C20.1234 12.8717 19.4827 13.0949 18.7064 13.1347C18.93 12.3654 19.2288 11.8055 19.4024 10.8701C19.4948 10.3734 19.8747 8.67985 19.4948 8.33284C19.2443 8.48081 19.3134 8.43235 19.2504 8.83821C19.0034 10.4296 18.7927 11.0726 18.0509 12.5627C17.2634 14.1463 15.4776 15.9151 13.8516 16.7095C13.4664 16.5797 12.9984 16.0475 12.7212 15.7715C11.628 14.6837 11.1547 13.1503 11.0597 11.4724C11.583 11.3988 12.0761 11.2482 12.5209 11.0587C13.4509 10.6633 14.3593 9.90087 14.9008 9.05022C15.1071 8.72658 15.7289 7.76256 15.5536 7.37055C15.1374 7.42161 15.1408 7.94083 14.861 8.2913C14.2479 9.43012 12.8101 10.5689 11.0382 10.7429C11.058 9.73818 11.1815 8.94551 11.3223 8.31553C11.5261 7.40344 11.7661 6.83057 11.7756 6.44289C11.3525 6.55538 11.4397 6.5675 11.2609 6.98893C10.8033 8.0689 10.5252 9.01561 10.305 10.3552C9.90347 12.8016 10.5399 13.6687 10.6185 14.7945C8.88104 14.348 6.4925 12.754 5.90184 11.7657C6.14104 11.5451 6.44414 11.0743 6.65139 10.7628H6.65225Z" fill="#301E15"/>
<path fill-rule="evenodd" clip-rule="evenodd" d="M9.11161 44.9844L9.3085 44.9792C9.57101 44.4175 9.53388 43.9234 9.9337 43.3306C10.2377 42.8798 10.7083 42.5977 11.2428 42.3978C10.8111 43.8862 11.2135 43.5167 11.3076 44.9342C11.3361 45.3651 11.2843 45.5702 11.6116 45.7684C12.362 45.2743 11.0442 43.701 11.7843 42.583C12.0623 42.1633 12.4328 41.9971 12.7816 41.5169C13.134 41.0314 13.2125 40.629 13.2307 39.8908C13.5243 40.121 13.7808 40.2292 13.8792 40.6749C13.9854 41.1577 13.906 41.4563 13.7177 41.8284C13.2842 42.686 12.2739 43.174 12.5891 43.4899C12.8093 43.7114 14.1624 42.6115 14.4837 41.3438L14.5908 41.0011C14.5985 40.9829 14.6167 40.9526 14.6236 40.9379C14.6305 40.9232 14.6443 40.8947 14.6581 40.8756C15.709 41.6103 14.4871 43.0788 14.1719 43.5392C13.7298 44.183 13.5148 45.0839 13.6884 45.9016C13.7747 46.3084 13.773 46.266 14.1331 46.3603C14.3386 44.9766 13.7531 44.9004 14.6659 43.7642C16.1227 41.9521 15.2306 42.7111 15.7323 41.7955C16.1658 42.2213 16.412 42.9862 16.3515 43.7547C16.3161 44.2073 15.595 46.0297 16.3196 45.1669C16.6572 44.4011 16.9439 43.8992 16.7936 42.8711C16.5458 41.1794 15.3878 40.6143 14.2678 39.838C13.7894 39.5066 13.311 38.81 13.5036 37.9204C13.906 37.9265 14.2687 38.2778 14.5519 38.4768C15.089 38.855 15.9465 38.9926 16.8031 39.4512C17.5009 39.8251 17.9827 41.1975 17.9646 41.574C17.937 42.159 17.8627 42.4341 17.9784 43.0321C18.1079 43.7019 18.7763 45.0146 19.215 44.9454L19.2366 44.6495C19.2349 44.646 19.0613 44.4175 19.0406 44.3916C18.5242 43.7512 18.3705 42.9646 18.4059 42.1209C18.5932 42.2221 19.6209 43.0883 20.4783 42.8711C20.4473 42.3104 20.3575 42.4791 19.8005 42.2844C18.81 41.9383 18.6882 41.5125 18.2444 40.0639C19.133 40.282 19.1053 40.7891 19.7737 41.1404C20.1139 41.3195 21.4421 41.7834 21.8073 41.6017C21.7572 41.3749 21.8116 41.4061 21.2702 41.2572C21.0172 41.1871 20.8497 41.1283 20.6148 41.0193C20.1839 40.8185 19.7357 40.5347 19.576 40.1825C20.1295 40.1946 20.4015 40.0553 20.9645 40.2214C21.5224 40.3858 22.7002 40.6125 22.9489 39.8432C22.0008 39.7506 22.8263 40.3841 21.0526 39.768C20.4404 39.5551 19.512 39.7134 18.7167 39.5153C18.2487 39.3984 15.4379 37.994 15.4137 37.7421C15.6779 36.8828 17.4197 37.3423 18.0311 37.6816C18.7297 38.0684 18.538 38.1393 18.9585 38.5495C19.1822 38.7685 19.8143 39.2011 20.2271 38.9095C20.1528 38.2406 19.8661 38.881 19.0198 37.8598C18.766 37.5535 18.7599 37.5786 18.3972 37.3164C18.0717 37.081 17.9024 37.0966 17.6494 36.9348C17.949 36.7054 18.6157 36.7132 19.0423 36.7677C20.1191 36.9053 20.8384 39.0869 21.9058 38.7356C21.7857 38.2259 21.8047 38.6205 21.1061 38.0113C20.8056 37.7491 20.5397 37.4903 20.4861 37.0403C21.151 37.2913 22.7374 38.6811 23.5957 38.1783C23.4947 37.6132 23.0396 38.0243 21.8246 37.2039C21.2875 36.8413 20.6778 36.4294 19.8229 36.3896L19.4784 36.3229L8.46137 36.2909C7.53048 36.2269 6.36125 36.2927 5.56766 36.6232C5.11948 36.8101 4.95886 37.0455 4.6998 37.3683C4.35439 37.7984 3.98393 37.724 3.90967 38.2068C4.65145 38.4924 4.98563 37.5094 5.4459 37.2203C6.06592 36.8318 7.07453 36.8915 7.86294 36.8534C7.81804 36.9477 7.32755 37.5795 7.09698 37.7084C6.53655 38.0208 6.21704 37.8044 6.07887 38.2804C6.4122 38.5262 7.03481 38.2847 7.32237 38.1117C7.8448 37.7958 7.6436 37.4912 8.24721 37.3328C8.89659 37.1624 10.7247 36.8162 11.2722 37.0966C11.3197 37.3311 10.9794 37.5916 10.7092 37.7335C10.394 37.8996 10.0926 37.9689 9.71177 38.0848C7.2222 38.8394 7.65742 39.7792 6.907 40.6593C6.03311 41.6839 5.39841 41.291 5.14366 41.6917C5.36818 41.9634 5.56507 41.8699 5.9433 41.7592C6.23258 41.6743 6.4476 41.5835 6.68939 41.4277C7.83703 40.6887 7.59524 39.6814 8.66948 39.1025C9.1427 38.8472 9.73422 38.6612 10.2938 38.559C10.1107 39.4495 9.47862 40.3105 8.9674 40.6601C8.53736 40.9544 8.24462 40.9483 7.90871 41.3022C7.74463 41.4753 7.24378 42.0984 7.49162 42.4584C8.07105 42.3173 7.43981 41.8535 8.90609 41.2235C9.70659 40.8799 9.95011 40.2733 10.3447 39.9203C10.4915 40.8505 9.81367 41.0262 9.98033 41.5307C10.7506 41.8768 10.9354 40.2006 10.8784 39.536C10.7964 38.5885 11.4293 37.788 12.21 37.7794C12.4561 38.2267 12.577 39.5378 12.5278 40.1686C12.431 41.413 10.4389 42.1235 9.77049 42.898C9.43026 43.2926 8.92509 44.267 9.11334 44.9826L9.11161 44.9844Z" fill="#301E15"/>
<path fill-rule="evenodd" clip-rule="evenodd" d="M17.6131 11.513C18.3705 11.25 18.266 9.44309 17.9188 8.85811C17.7116 8.50937 17.9197 8.71359 17.6131 8.58119C16.8645 8.99051 16.8921 11.0501 17.6131 11.513Z" fill="#66B349"/>
<path fill-rule="evenodd" clip-rule="evenodd" d="M19.3143 0.721982C18.5984 0.664868 16.475 1.15639 16.6425 1.92397C16.7815 2.56261 19.493 1.89022 19.3143 0.721982Z" fill="#66B349"/>
<path fill-rule="evenodd" clip-rule="evenodd" d="M16.9862 8.41504C17.8195 8.14765 17.8359 5.86655 17.165 5.46762C16.3463 5.7255 16.3489 7.91833 16.9862 8.41504Z" fill="#66B349"/>
<path fill-rule="evenodd" clip-rule="evenodd" d="M22.5716 6.91709C23.398 6.91277 24.6656 4.98214 23.9575 4.3262C23.5854 3.98092 22.3177 5.42088 22.5716 6.91709Z" fill="#66B349"/>
<path fill-rule="evenodd" clip-rule="evenodd" d="M6.95709 1.44282C6.23604 1.13129 5.23779 3.37777 5.78959 4.12112C6.75589 3.92295 7.36036 2.26838 6.95709 1.44282Z" fill="#66B349"/>
<path fill-rule="evenodd" clip-rule="evenodd" d="M0.00992756 12.214C0.204223 13.3381 2.1774 14.6353 2.15495 13.7794C2.12559 12.651 -0.167961 11.1842 0.00992756 12.214Z" fill="#66B349"/>
<path fill-rule="evenodd" clip-rule="evenodd" d="M20.6588 16.4897C21.4567 16.2336 21.5742 14.0676 20.9274 13.5518C20.0802 13.7197 20.0112 15.9091 20.6588 16.4897Z" fill="#66B349"/>
<path fill-rule="evenodd" clip-rule="evenodd" d="M20.7555 5.95309C21.7426 6.26895 22.6355 3.87016 22.2961 3.45739C21.8496 2.91394 20.6856 4.91206 20.7555 5.95309Z" fill="#66B349"/>
<path fill-rule="evenodd" clip-rule="evenodd" d="M16.6874 4.97697C17.5596 5.20369 18.7305 2.88366 18.2064 2.50982C17.6675 2.1256 16.3446 4.18343 16.6874 4.97697Z" fill="#66B349"/>
<path fill-rule="evenodd" clip-rule="evenodd" d="M13.9569 7.2269L13.9759 7.2719C14.9811 7.26065 16.0933 6.04222 16.0121 5.02715C14.9655 4.96225 13.9768 6.19193 13.9569 7.2269Z" fill="#66B349"/>
<path fill-rule="evenodd" clip-rule="evenodd" d="M18.0397 5.97213C18.2694 6.47577 20.1744 5.0609 20.0284 3.78017C19.1036 3.72392 17.7254 5.2833 18.0397 5.97213Z" fill="#66B349"/>
<path fill-rule="evenodd" clip-rule="evenodd" d="M10.3162 7.43544C9.53043 7.32727 8.46569 9.08829 8.80506 9.93028C9.99846 9.76673 10.8819 7.51333 10.3162 7.43544Z" fill="#66B349"/>
<path fill-rule="evenodd" clip-rule="evenodd" d="M4.19291 5.65454C4.86647 5.79733 5.26888 3.62786 4.82502 2.7876C3.76374 2.92346 3.66961 5.54377 4.19291 5.65454Z" fill="#66B349"/>
<path fill-rule="evenodd" clip-rule="evenodd" d="M13.9155 8.01524C13.2523 7.88457 12.6936 8.20302 12.292 8.49898C12.1357 8.61407 11.2739 9.44828 11.5226 9.70269C11.9898 10.1804 14.0441 8.97925 13.9155 8.01524Z" fill="#66B349"/>
<path fill-rule="evenodd" clip-rule="evenodd" d="M23.9333 15.1726C24.9178 15.3829 26.1777 13.7041 25.973 12.9963C25.0249 12.5601 24.0871 14.3981 23.9333 15.1726Z" fill="#66B349"/>
<path fill-rule="evenodd" clip-rule="evenodd" d="M9.28259 13.583C10.2489 12.9504 9.48725 10.8536 9.19278 10.6728C8.33183 11.3296 8.58917 13.2749 9.28259 13.583Z" fill="#66B349"/>
<path fill-rule="evenodd" clip-rule="evenodd" d="M20.2124 9.43185C21.012 9.74771 22.2823 7.71411 21.9351 7.06422C21.1761 6.92749 19.8324 8.71533 20.2124 9.43185Z" fill="#66B349"/>
<path fill-rule="evenodd" clip-rule="evenodd" d="M9.37239 3.5119C10.052 3.15796 10.0969 0.714182 9.51228 0.614666C8.77396 0.489188 8.56498 3.16921 9.37239 3.5119Z" fill="#66B349"/>
<path fill-rule="evenodd" clip-rule="evenodd" d="M18.968 3.24277C19.6355 3.6391 21.7521 2.75644 21.5232 1.90232C20.8514 1.83136 18.3817 2.37308 18.968 3.24277Z" fill="#66B349"/>
<path fill-rule="evenodd" clip-rule="evenodd" d="M16.0907 13.8833C17 13.673 16.9007 11.7276 16.4767 10.9566C15.5726 11.0959 15.4491 13.1122 16.0907 13.8833Z" fill="#66B349"/>
<path fill-rule="evenodd" clip-rule="evenodd" d="M2.57636 16.0873C2.77239 15.2808 1.1973 14.1186 0.117874 14.3125C0.314761 15.4669 1.49435 16.0804 2.57636 16.0873Z" fill="#66B349"/>
<path fill-rule="evenodd" clip-rule="evenodd" d="M24.4998 10.0731C25.0991 10.048 26.8271 8.89359 26.3694 8.28178C25.7286 7.65439 22.9722 10.1362 24.4998 10.0731Z" fill="#66B349"/>
<path fill-rule="evenodd" clip-rule="evenodd" d="M19.5941 14.6257C18.0311 14.5279 16.4482 17.6614 18.3195 16.6022C18.582 16.4534 18.7271 16.3158 18.9171 16.1228C19.2305 15.8044 19.6338 15.2263 19.5941 14.6257Z" fill="#66B349"/>
<path fill-rule="evenodd" clip-rule="evenodd" d="M11.5537 11.8869C11.3447 13.1494 12.6832 14.7313 13.058 14.3791C13.5588 13.9084 12.4449 11.6351 11.5537 11.8869Z" fill="#66B349"/>
<path fill-rule="evenodd" clip-rule="evenodd" d="M23.3764 11.7865C23.8012 10.6546 23.619 9.7027 22.898 8.9057C22.018 9.00176 22.4092 11.738 23.3764 11.7865Z" fill="#66B349"/>
<path fill-rule="evenodd" clip-rule="evenodd" d="M15.1054 11.134C15.57 11.16 15.9577 10.6044 16.1322 10.1899C16.342 9.69231 16.4128 8.95156 16.2859 8.42975C15.4595 8.45831 14.6227 10.2591 15.1054 11.1331V11.134Z" fill="#66B349"/>
<path fill-rule="evenodd" clip-rule="evenodd" d="M5.75246 15.4816C6.20063 15.7031 6.87851 15.852 7.39749 15.7152C7.45449 14.6638 5.0314 13.8997 4.7758 14.4103C4.61086 14.74 5.44158 15.3284 5.75246 15.4816Z" fill="#66B349"/>
<path fill-rule="evenodd" clip-rule="evenodd" d="M5.45971 10.1077C6.27489 10.0255 6.66003 7.91919 6.12895 7.22171C5.27146 7.34892 4.91655 9.42925 5.45971 10.1077Z" fill="#66B349"/>
<path fill-rule="evenodd" clip-rule="evenodd" d="M16.2366 2.55222C16.323 0.986779 15.0752 -0.0369442 14.6305 0.0625724C14.3196 0.986779 15.3135 2.67164 16.2366 2.55222Z" fill="#66B349"/>
<path fill-rule="evenodd" clip-rule="evenodd" d="M20.2979 5.84406C19.5034 5.88213 17.5294 8.049 18.6079 8.15803C19.3411 8.23245 20.588 6.61769 20.2979 5.84406Z" fill="#66B349"/>
<path fill-rule="evenodd" clip-rule="evenodd" d="M23.7943 13.1105C24.6656 13.1105 25.6552 11.6558 25.3919 10.5698C24.2632 10.6044 23.7675 12.1534 23.7943 13.1105Z" fill="#66B349"/>
<path fill-rule="evenodd" clip-rule="evenodd" d="M0.35794 8.94032C-0.301802 9.16099 1.03409 11.6697 1.56516 11.5433C2.30694 11.3668 1.1783 8.666 0.35794 8.94032Z" fill="#66B349"/>
<path fill-rule="evenodd" clip-rule="evenodd" d="M26.3625 7.60592C26.644 6.69124 25.4126 5.18724 24.5378 5.24262C24.4428 6.13135 25.2839 7.67429 26.3625 7.60592Z" fill="#66B349"/>
<path fill-rule="evenodd" clip-rule="evenodd" d="M4.61086 7.77641C5.15748 8.00833 6.483 5.54378 5.84399 5.18552C5.03572 4.73207 4.11778 7.56699 4.61086 7.77641Z" fill="#66B349"/>
<path fill-rule="evenodd" clip-rule="evenodd" d="M16.1287 2.93211C15.1175 2.81962 13.5398 4.49669 14.0182 4.94148C14.4517 5.34474 16.4508 3.79574 16.1287 2.93211Z" fill="#66B349"/>
<path fill-rule="evenodd" clip-rule="evenodd" d="M12.7022 7.54016C13.4155 7.32987 13.8429 5.34473 13.3127 4.69917C12.2368 4.85061 12.1564 7.70025 12.7022 7.54016Z" fill="#66B349"/>
<path fill-rule="evenodd" clip-rule="evenodd" d="M1.10489 7.52026C0.710254 8.441 3.13938 9.63433 3.40881 9.28906C3.76027 8.8382 1.96497 7.19661 1.10489 7.52026Z" fill="#66B349"/>
<path fill-rule="evenodd" clip-rule="evenodd" d="M3.90104 7.63622C3.88463 6.78903 3.07377 4.89994 2.13338 5.27551C2.18087 6.10712 3.07463 8.15284 3.90104 7.63622Z" fill="#66B349"/>
<path fill-rule="evenodd" clip-rule="evenodd" d="M10.0831 6.73278C10.685 7.43199 12.3516 4.64726 11.7057 4.35131C11.1582 4.10035 9.75926 6.01972 10.0831 6.73278Z" fill="#66B349"/>
<path fill-rule="evenodd" clip-rule="evenodd" d="M26.4808 12.4173C27.2036 12.021 27.144 9.94499 26.4808 9.48462C25.6742 9.76759 25.7623 12.13 26.4808 12.4173Z" fill="#66B349"/>
<path fill-rule="evenodd" clip-rule="evenodd" d="M13.9129 10.7247C13.2791 10.7195 13.4474 13.3398 14.2989 13.6003C15.0139 13.0413 14.5545 10.7299 13.9129 10.7247Z" fill="#66B349"/>
<path fill-rule="evenodd" clip-rule="evenodd" d="M7.40181 12.4113C8.24808 11.8765 8.52787 10.2167 8.05033 9.57809C7.28092 9.43184 6.58491 12.0426 7.40181 12.4113Z" fill="#66B349"/>
<path fill-rule="evenodd" clip-rule="evenodd" d="M9.13234 5.15176C9.23337 4.44649 8.66603 2.68634 7.48385 2.69067C7.2386 3.21508 7.94152 5.28069 9.13234 5.15176Z" fill="#66B349"/>
<path fill-rule="evenodd" clip-rule="evenodd" d="M21.7236 9.8628C21.1804 9.35397 19.3298 11.6022 19.8385 12.034C20.4378 12.5428 22.1622 10.2738 21.7236 9.8628Z" fill="#66B349"/>
<path fill-rule="evenodd" clip-rule="evenodd" d="M12.7039 4.07439C13.7402 4.45169 14.88 1.9058 14.3628 1.6808C13.602 1.35024 12.7419 3.42278 12.7039 4.07439Z" fill="#66B349"/>
<path fill-rule="evenodd" clip-rule="evenodd" d="M7.04343 7.16374C7.7783 6.89115 7.79212 4.59102 7.04343 4.21458C6.33187 4.56246 6.37937 6.81153 7.04343 7.16374Z" fill="#65B24C"/>
<path fill-rule="evenodd" clip-rule="evenodd" d="M9.84993 4.36774C10.729 4.25871 12.2333 3.24969 11.9699 2.16972C10.868 2.26405 9.79466 3.36565 9.84993 4.36774Z" fill="#66B349"/>
<path fill-rule="evenodd" clip-rule="evenodd" d="M22.3211 7.99535C22.7719 8.73783 24.8073 8.51283 25.2269 7.90535C24.9644 7.11008 22.5802 7.20354 22.3211 7.99535Z" fill="#66B349"/>
<path fill-rule="evenodd" clip-rule="evenodd" d="M10.6815 1.78031C10.9043 2.27876 13.1901 1.30523 13.0269 0.0262226C12.3887 -0.179734 10.2748 0.870816 10.6815 1.78031Z" fill="#66B349"/>
<path fill-rule="evenodd" clip-rule="evenodd" d="M15.7151 14.0814C14.7315 14.1567 14.1944 14.4181 13.5726 15.2575C12.4302 16.7987 15.8904 15.5491 15.7151 14.0814Z" fill="#66B349"/>
<path fill-rule="evenodd" clip-rule="evenodd" d="M4.94331 16.218C5.02276 15.3129 3.72745 14.0313 2.8501 14.11C2.69985 15.074 4.12382 16.5079 4.94331 16.218Z" fill="#66B349"/>
<path fill-rule="evenodd" clip-rule="evenodd" d="M22.2443 12.162C21.7054 12.9461 22.2857 15.0402 23.1415 14.9701C23.4852 14.1238 23.1156 12.4173 22.2443 12.162Z" fill="#66B349"/>
<path fill-rule="evenodd" clip-rule="evenodd" d="M4.40707 12.5532C4.8777 12.2936 3.81123 10.1562 2.6705 10.26C2.45116 11.3529 3.95199 12.8042 4.40707 12.5532Z" fill="#66B349"/>
<path fill-rule="evenodd" clip-rule="evenodd" d="M7.95793 8.14591C8.29816 8.48773 9.89916 6.92402 9.35599 5.70126C8.41301 5.70299 7.59697 7.78332 7.95793 8.14591Z" fill="#66B349"/>
<path fill-rule="evenodd" clip-rule="evenodd" d="M21.8384 16.6706C22.2978 16.6455 23.0957 15.8684 23.2296 15.5716L22.8902 15.2886C22.7659 15.1986 21.8237 14.772 21.493 14.83C21.3393 15.183 21.4161 14.9485 21.3911 15.3812C21.3134 16.7545 21.7218 16.1194 21.4308 16.6957L21.8376 16.6697L21.8384 16.6706Z" fill="#FAFAF8"/>
<path fill-rule="evenodd" clip-rule="evenodd" d="M5.3699 20.743C5.3699 20.4912 5.3699 20.2411 5.3699 19.9996C5.3699 19.6535 5.64969 19.3731 5.9951 19.3731C6.21099 19.3731 6.4286 19.3783 6.64448 19.3783H19.4024C19.5017 19.3783 19.601 19.3775 19.6986 19.3835C20.0241 19.4051 20.2823 19.6769 20.2823 20.0083C20.2823 20.3683 19.9343 20.6097 19.6934 20.8512L17.342 23.2075V22.3664C17.342 22.0376 17.0924 21.7684 16.7867 21.7684H9.93197C9.62628 21.7684 9.37671 22.0376 9.37671 22.3664V23.7493H14.7488L11.8922 28.6697L6.76797 33.8048C6.54777 34.0254 6.33793 34.3231 5.99597 34.3231C5.70064 34.3231 5.45367 34.118 5.38804 33.842C5.37681 33.7952 5.37077 33.7468 5.37077 33.6966C5.37077 29.3793 5.37077 25.062 5.37077 20.7439L5.3699 20.743ZM22.2849 34.9643C22.2849 35.2162 22.2849 35.4663 22.2849 35.7077C22.2849 36.0538 22.0051 36.3342 21.6597 36.3342C21.4438 36.3342 21.2262 36.329 21.0103 36.329H8.25239C8.15308 36.329 8.05378 36.3299 7.9562 36.3238C7.63064 36.3022 7.37245 36.0305 7.37245 35.699C7.37245 35.339 7.72045 35.0976 7.96138 34.8562L9.90088 32.9126V33.3409C9.90088 33.6698 10.1504 33.9389 10.4561 33.9389H17.7228C18.0285 33.9389 18.2781 33.6698 18.2781 33.3409V31.9581H12.5278L14.8576 27.9454L20.8877 21.9026C21.1079 21.6819 21.3177 21.3842 21.6597 21.3842C21.955 21.3842 22.202 21.5893 22.2676 21.8654C22.2788 21.9121 22.2849 21.9606 22.2849 22.0107C22.2849 26.328 22.2849 30.6453 22.2849 34.9635V34.9643Z" fill="url(#paint0_linear_70_89)"/>
<defs>
<linearGradient id="paint0_linear_70_89" x1="5.3699" y1="27.8537" x2="22.2849" y2="27.8537" gradientUnits="userSpaceOnUse">
<stop stop-color="#622715"/>
<stop offset="1" stop-color="#D3322A"/>
</linearGradient>
</defs>
</svg>
